<svg version="1.1" xmlns="http://www.w3.org/2000/svg" xmlns:xlink="http://www.w3.org/1999/xlink" x="0px" y="0px" width="200px"
	 height="200px" viewBox="0 0 200 200" enable-background="new 0 0 200 200" xml:space="preserve">
<!-- <g id="shadow">
	<path opacity="0.1" fill="#353535" d="M50.25,161.893l100.5,0.466c0,0,2.251-0.066,2.251,2.184c0,1.491-2.501,1.708-2.501,1.708
		l-97.75,0.222c0,0-4.5,0.392-4.75-2.29S50.25,161.893,50.25,161.893z"/>
</g> -->
<g id="lemon">
	<g id="left">
		<path id="left-background" fill="#F7DB2D" d="M97.377,162.418c0,0-13.629,4.012-38.563-11.294
			c-24.935-15.307-24.438-25.873-24.438-25.873s-0.027-2.186-2.97-4.336c-2.942-2.151-10.177-7.527-9.754-16.688
			c0,0-0.277-1.468,1.61-4.469c1.882-2.992,8.225-5.279,11.418-10.508c3.194-5.228,2.366-8.026,9.294-16.429
			c6.928-8.404,25.958-22.918,56.614-23.126c0,0,12.237,3.087,14.862,54.157c2.605,50.704-12.111,56.566-16.375,58.175"/>
		<path id="left-shadow" fill="#F5B60F" d="M99.704,154.519c0,0-22.48,1.226-43.84-14.996C34.502,123.3,27.293,75.546,71.797,54.613
			c0,0-24.8,5.657-34.606,29.379c0,0-1.927,6.126-5.759,9.009c-3.831,2.883-6.88,5.005-6.88,5.005s-2.569,2.747-3.439,7.111
			c-0.979,4.918,2.264,9.687,9.713,15.371c0,0,2.909,2.556,3.894,7.109c1.03,4.764,12.313,18.3,26.808,25.863
			c14.497,7.563,28.511,10.639,40.218,10.096C101.745,163.558,101.047,160.319,99.704,154.519z"/>
		<path id="left-border" fill="#F5F8A6" d="M102.073,155.326c0,0-4.703-11.564-5.483-52.786
			c-0.778-41.071,1.603-42.133,4.564-40.792c2.958,1.34,6.198,6.703,7.267,19.096c1.066,12.393,3.969,47.388-3.148,70.866
			c-7.12,23.479,0,0,0,0s5.184-5.878,7.279-8.139c2.092-2.263,5.811-38.725,0.648-64.806c-5.178-26.181-9.992-33.83-16.013-26.152
			c-6.022,7.678-8.597,65.342-0.272,101.963c0,0,1.807,5.532,4.259,8.375c2.454,2.845,7.938-10.188,7.938-10.188
			s-5.848,6.384-6.832,2.449"/>
		<path id="left-inner" fill="#F5F8A6" d="M101.146,91.41c0,0-3.608,0.065-2.518,16.764c1.089,16.697,3.835,14.972,5.003,14.206
			s1.959-4.512,2.33-14.414C106.323,98.335,104.585,90.231,101.146,91.41z"/>
		<path id="left-eye-0" fill="#FFFFFF" d="M71.626,87.359c-3.26-1.902-4.361-6.085-2.46-9.346c1.902-3.26,6.086-4.361,9.346-2.458
			c3.26,1.9,4.361,6.084,2.459,9.345C79.07,88.16,74.886,89.26,71.626,87.359z"/>
		<path id="left-eye-1" fill="#353535" d="M72.886,85.199c-2.067-1.206-2.764-3.859-1.559-5.926
			c1.206-2.067,3.858-2.765,5.925-1.56c2.067,1.206,2.766,3.859,1.559,5.926C77.606,85.706,74.953,86.405,72.886,85.199z"/>
		<circle id="left-eye-2" fill="#FFFFFF" cx="73.384" cy="78.732" r="1.504"/>
		<path id="left-mouth-dead" display="none" fill="#353535" d="M91.618,98.529c0,0-3.705-0.516-4.572,3.575
			c0,0-0.003,0.682-0.686,0.646s-0.526-0.813-0.526-0.813s0.62-5.033,5.784-4.67V98.529z"/>
		<path id="left-mouth" fill="#353535" d="M91.619,101.472c0,0-3.705,0.516-4.572-3.575c0,0-0.003-0.682-0.686-0.646
			s-0.526,0.813-0.526,0.813s0.62,5.033,5.784,4.67V101.472z"/>
		<path id="left-eye-dead" display="none" fill="#353535" d="M80.246,85.195c-0.09-0.287-1.511-2.029-3.128-3.879
			c1.69-1.108,3.052-2.059,3.085-2.188c0.08-0.334-1.129-1.395-1.129-1.395c-0.204,0.066-1.717,0.891-3.475,1.881
			c-1.492-1.637-2.857-3.02-3.223-3.109c-0.888-0.218-0.799,0.863-0.799,0.863c0.065,0.016,1.167,1.411,2.512,3.102
			c-2.25,1.285-4.432,2.575-4.534,2.754c-0.206,0.36,0.163,1.979,0.993,1.947c0.411-0.016,2.749-1.408,5.02-2.854
			c1.727,2.145,3.402,4.164,3.609,4.116C79.613,86.334,80.442,85.831,80.246,85.195z"/>
	</g>
	<g id="right">
		<path id="right-background_2_" fill="#F7DB2D" d="M100.602,163.599c0,0-2.285,0.181-4.9-11.458c0,0-12.793-74.533,2.632-102.444
			c0,0,26.042-0.039,44.292,13.156c14.262,10.312,14.26,13.453,23.254,25.085c0,0,2.825,5.359,7.433,8.301
			c4.609,2.94,6.097,7.542,6.097,7.542s2.952,6.199-3.624,13.009c-6.575,6.81-5.505,5.357-8.803,10.45
			c-3.297,5.092-14.627,24.56-34.607,30.885C111.25,164.813,100.602,163.599,100.602,163.599z"/>
		<path id="right-shadow_2_" fill="#F5B60F" d="M96.159,154.573c0,0,31.294,2.295,49.306-17.734
			c18.011-20.027,20.799-51.761-8.388-77.815c0,0,13.195,6.859,29.63,30.295c0,0,3.287,5.023,8.163,8.064s4.821,7.191,4.821,7.191
			s3.288,6.012-6.554,14.939c0,0-4.146,4.441-6.816,8.787c-2.671,4.347-10.02,21.618-34.306,30.899c0,0-20.083,5.085-31.414,4.398
			C100.602,163.599,98.563,163.547,96.159,154.573z"/>
		<path id="right-eye-0" fill="#FFFFFF" d="M106.789,89.937c-3.705-0.727-6.12-4.317-5.395-8.021
			c0.726-3.705,4.315-6.118,8.021-5.392c3.702,0.726,6.117,4.315,5.392,8.019C114.081,88.247,110.491,90.661,106.789,89.937z"/>
		<path id="right-eye-1" fill="#353535" d="M107.269,87.482c-2.35-0.461-3.88-2.737-3.419-5.085c0.46-2.35,2.735-3.88,5.085-3.419
			c2.348,0.459,3.878,2.736,3.418,5.086C111.894,86.411,109.616,87.94,107.269,87.482z"/>
		<circle id="right-eye-2" fill="#FFFFFF" cx="105.614" cy="81.21" r="1.504"/>
		<path id="right-mouth-dead" display="none" fill="#353535" d="M90.185,98.528c0,0,3.705-0.516,4.572,3.575
			c0,0,0.004,0.682,0.686,0.646s0.526-0.813,0.526-0.813s-0.62-5.032-5.785-4.669V98.528z"/>
		<path id="right-mouth" fill="#353535" d="M90.186,101.472c0,0,3.705,0.516,4.572-3.575c0,0,0.004-0.682,0.686-0.646
			s0.526,0.813,0.526,0.813s-0.62,5.033-5.784,4.67V101.472z"/>
		<path id="right-eye-dead" display="none" fill="#353535" d="M113.965,87.107c-0.098-0.313-1.652-2.22-3.422-4.244
			c1.85-1.213,3.34-2.253,3.375-2.396c0.089-0.364-1.235-1.525-1.235-1.525c-0.223,0.073-1.878,0.975-3.802,2.058
			c-1.633-1.791-3.127-3.304-3.526-3.402c-0.972-0.238-0.875,0.944-0.875,0.944c0.071,0.018,1.277,1.545,2.749,3.394
			c-2.463,1.407-4.851,2.818-4.962,3.014c-0.226,0.395,0.178,2.167,1.087,2.132c0.449-0.018,3.008-1.541,5.493-3.124
			c1.889,2.347,3.724,4.557,3.949,4.505C113.273,88.354,114.181,87.804,113.965,87.107z"/>
	</g>
</g>
</svg>
