<?xml version="1.0" encoding="utf-8"?>
<!-- Generator: Adobe Illustrator 26.5.0, SVG Export Plug-In . SVG Version: 6.00 Build 0)  -->
<svg version="1.1" id="Layer_2_00000136395032187397784780000000472429305708909708_"
	 xmlns="http://www.w3.org/2000/svg" xmlns:xlink="http://www.w3.org/1999/xlink" x="0px" y="0px" viewBox="0 0 313.2 337.7"
	 style="enable-background:new 0 0 313.2 337.7;" xml:space="preserve">
<style type="text/css">
	.st0{fill:none;stroke:#3C3C3B;stroke-width:5;stroke-miterlimit:10;}
	.st1{fill:none;stroke:#3C3C3B;stroke-width:5;stroke-linecap:round;stroke-linejoin:round;}
	.st2{fill:#3C3C3B;}
	.st3{font-family:'MyriadPro-Bold';}
	.st4{font-size:31.56px;}
</style>
<g id="Layer_1-2">
	<g>
		<g>
			<path class="st0" d="M105.1,293.4c1.6,2.3,3.3,4.5,5.1,6.6c-4-1.3-8-2.8-11.9-4.5C100.6,294.9,102.9,294.2,105.1,293.4
				L105.1,293.4z"/>
			<path class="st0" d="M244.6,243.4l0,0.3c0-0.3-0.1-0.7-0.2-1L244.6,243.4z"/>
			<path class="st0" d="M247.3,275.1c2.8-0.7,5.6-1.6,8.2-2.6c-4.2,3.5-8.7,6.8-13.3,9.9c2.4-8.2,3.6-17,3.4-26L247.3,275.1z"/>
			<path class="st0" d="M243.7,215.8c-0.8,1.6-2,2.7-3.6,3.3l3.6,19.4c-2.1-10.1-6-20.2-11.6-29.9c-3-5.1-6.3-9.9-9.9-14.3
				c-5.7-6.9-12.2-12.8-19.1-17.6c-0.1,0-0.2-0.1-0.2-0.2c-1.3-0.9-2.6-1.8-3.9-2.6c0,0-0.1,0-0.1-0.1c-7.4-4.6-15.3-8-23.3-10.2
				c0,0-0.1,0-0.1,0c-14.3-3.8-29.2-3.6-42.9,1.2c-0.2-0.6-0.5-1.3-0.9-1.9c-2.9-5-9.3-6.7-14.3-3.8L114,161
				c-5,2.9-6.7,9.3-3.8,14.3c0.4,0.6,0.8,1.2,1.2,1.7c-16.4,14.1-25.2,35.6-25.2,58.7c-2.1,1-4.5,1.7-7,1.7c-8.8,0.1-16-7-16-15.7
				L20.9,222C11,201.8,5.5,179.1,5.5,155.1C5.5,70.8,73.8,2.5,158.1,2.5s152.6,68.3,152.6,152.6c0,19.2-3.6,37.6-10,54.6
				c0.3-6.8-0.4-13.7-2.1-20.6"/>
			<g>
				<g>
					<g>
						<path class="st1" d="M155.7,220.7c0.3,33.2-20.9,61.9-50.6,72.7c-2.2,0.8-4.5,1.5-6.8,2.1c-5.9,1.5-12.1,2.4-18.4,2.4
							c-42.2,0.4-77-33.7-77.4-75.8l18.4-0.2l42.3-0.4c0.1,8.8,7.3,15.8,16,15.7c2.5,0,4.9-0.6,7-1.7c5.3-2.6,8.8-8.1,8.8-14.4
							L155.7,220.7z"/>
						<path class="st1" d="M79.9,298L79.7,286l-0.5-48.7c8.8-0.1,15.8-7.3,15.7-16l60.7-0.6"/>
						<g>
							<line class="st1" x1="27" y1="277.4" x2="67.6" y2="234.6"/>
							<line class="st1" x1="131.6" y1="274.5" x2="91.2" y2="234.6"/>
							<path class="st1" d="M79.7,286"/>
							<path class="st1" d="M79.8,297.9"/>
						</g>
					</g>
					<g>
						<g>
							<path class="st1" d="M243.7,215.8l46.4,28c-7.9,12.7-19.8,23-34.5,28.7c-2.7,1-5.4,1.9-8.2,2.6l-1.6-18.8
								c-0.1-4.2-0.4-8.4-1.1-12.6l0-0.3l-0.1-0.7c-0.2-1.5-0.5-2.9-0.8-4.3L240,219C241.6,218.3,242.8,216.9,243.7,215.8z"/>
							<path class="st1" d="M300.6,209.6"/>
							<path class="st1" d="M291.8,240.8"/>
							<path class="st1" d="M243.7,238.4c0.3,1.4,0.6,2.9,0.8,4.3L243.7,238.4z"/>
							<path class="st1" d="M244.6,243.8c0.7,4.2,1,8.4,1.1,12.6L244.6,243.8z"/>
							<path class="st1" d="M298.5,189c1.8,6.9,2.4,13.8,2.1,20.6c-0.4,11.1-4.1,21.9-8.8,31.1c-0.6,1-1.2,2-1.8,3l-46-28.9
								c3.2-6.3,1.7-10.3,0.9-13.3"/>
							<path class="st1" d="M291.8,240.8c-0.5,1-1.1,2-1.8,3C290.6,242.8,291.2,241.8,291.8,240.8z"/>
							<g>
								<path class="st1" d="M195.3,268.2"/>
								<line class="st1" x1="243.7" y1="215.8" x2="243.6" y2="215.7"/>
								<path class="st1" d="M288.7,242.7"/>
								<path class="st1" d="M247.3,275.1"/>
								<path class="st1" d="M233.5,220.8"/>
							</g>
						</g>
						<g>
							<path class="st1" d="M224.6,195.6c8.8-4.8,16.7-1.2,20.5,6.4l53.3-13.6c-9.6-37.7-48.4-60.7-86.2-51.1
								c0,0-24.3,4.6-36.9,26.2c0,0,11.9,3.4,23.6,10.3C211.4,181.3,222.7,196.7,224.6,195.6z"/>
							<g>
								<line class="st1" x1="264.2" y1="144.2" x2="236.3" y2="193.1"/>
								<path class="st1" d="M170.8,169.7"/>
								<line class="st1" x1="226.1" y1="191.7" x2="212.2" y2="137.4"/>
							</g>
						</g>
					</g>
					<g>
						<path class="st0" d="M245.7,256.3c0.2,9-1,17.8-3.4,26c-4,13.4-11.3,25.3-21.7,34.2c0.2,0.3,0.5,0.6,0.6,1
							c2.9,5,1.2,11.4-3.8,14.3l-3.3,1.9c-5,2.9-11.4,1.2-14.3-3.8c-0.2-0.3-0.4-0.7-0.5-1c-30,10.6-65.6-1.1-89.1-28.9
							c-1.8-2.1-3.5-4.3-5.1-6.6v0c29.7-10.8,50.9-39.4,50.6-72.7L95,221.3c0.1,6.3-3.5,11.7-8.8,14.4c0-23.1,8.8-44.6,25.2-58.7
							c-0.5-0.5-0.9-1.1-1.2-1.7c-2.9-5-1.2-11.4,3.8-14.3l3.3-1.9c5-2.9,11.4-1.2,14.3,3.8c0.4,0.6,0.6,1.3,0.9,1.9
							c13.7-4.9,28.5-5.1,42.9-1.2c0,0,0.1,0,0.1,0c8,2.2,15.9,5.6,23.3,10.2c0,0,0.1,0,0.1,0.1c1.3,0.8,2.6,1.7,3.9,2.6
							c0.1,0,0.2,0.1,0.2,0.2c6.9,4.9,13.4,10.8,19.1,17.6c3.6,4.4,7,9.1,9.9,14.3c5.6,9.6,9.4,19.8,11.6,29.9
							c0.3,1.4,0.6,2.9,0.8,4.3c0.1,0.3,0.1,0.7,0.2,1C245.3,248,245.6,252.2,245.7,256.3z"/>
						<g>
							<path class="st0" d="M191.9,86c0,0-4.4,70.9-79.9,69.6C112,155.6,116,85.9,191.9,86z"/>
							<line class="st0" x1="191.9" y1="86" x2="112" y2="155.6"/>
						</g>
						<path class="st1" d="M86.2,155.6c0,0,16.6-8.6,27.8,5.4"/>
					</g>
				</g>
				<g>
					<g>
						<line class="st1" x1="218.2" y1="110.2" x2="259.2" y2="110.2"/>
						<line class="st1" x1="226.1" y1="94.4" x2="251.3" y2="94.4"/>
					</g>
					<line class="st1" x1="53.3" y1="184.1" x2="69.9" y2="184.1"/>
					<line class="st1" x1="147.9" y1="301.6" x2="156" y2="301.6"/>
				</g>
			</g>
		</g>
		<g>
			<text transform="matrix(8.332998e-02 -0.9965 0.9965 8.332998e-02 51.9601 153.4101)" class="st2 st3 st4">P</text>
			<text transform="matrix(0.2635 -0.9646 0.9646 0.2635 54.85 129.8896)" class="st2 st3 st4">I</text>
			<text transform="matrix(0.4348 -0.9005 0.9005 0.4348 58.71 116.0198)" class="st2 st3 st4">Z</text>
			<text transform="matrix(0.6281 -0.7781 0.7781 0.6281 69.4601 95.0604)" class="st2 st3 st4">Y</text>
			<text transform="matrix(0.8607 -0.5092 0.5092 0.8607 94.3199 68.8002)" class="st2 st3 st4">G</text>
			<text transform="matrix(0.9578 -0.2874 0.2874 0.9578 117.62 55.92)" class="st2 st3 st4">R</text>
			<text transform="matrix(0.999 -4.571169e-02 4.571169e-02 0.999 140.44 49.48)" class="st2 st3 st4">O</text>
			<text transform="matrix(0.9776 0.2105 -0.2105 0.9776 168.0999 48.92)" class="st2 st3 st4">U</text>
			<text transform="matrix(0.8989 0.4382 -0.4382 0.8989 193.9501 55.3201)" class="st2 st3 st4">P</text>
		</g>
	</g>
</g>
</svg>
