<?xml version="1.0" encoding="UTF-8"?>
<svg id="Layer_1" data-name="Layer 1" xmlns="http://www.w3.org/2000/svg" viewBox="0 0 501.62 416.15">
  <defs>
    <style>
      .cls-1 {
        font-family: MyriadPro-Bold, 'Myriad Pro';
        font-size: 31.56px;
      }

      .cls-1, .cls-2 {
        fill: #3c3c3b;
      }

      .cls-2 {
        font-family: JosefinSans-SemiBold, 'Josefin Sans';
        font-size: 39.45px;
      }

      .cls-3, .cls-4 {
        stroke-miterlimit: 10;
      }

      .cls-3, .cls-4, .cls-5, .cls-6 {
        stroke: #3c3c3b;
        stroke-width: 5px;
      }

      .cls-3, .cls-6 {
        fill: #f9f0a0;
      }

      .cls-4, .cls-5 {
        fill: none;
      }

      .cls-5, .cls-6 {
        stroke-linecap: round;
        stroke-linejoin: round;
      }
    </style>
  </defs>
  <g>
    <g>
      <text class="cls-2" transform="translate(110.44 364.03) rotate(31.42)"><tspan x="0" y="0">S</tspan></text>
      <text class="cls-2" transform="translate(136.91 379.44) rotate(25.61)"><tspan x="0" y="0">I</tspan></text>
      <text class="cls-2" transform="translate(155.42 388.47) rotate(18.49)"><tspan x="0" y="0">N</tspan></text>
      <text class="cls-2" transform="translate(195.46 400.9) rotate(9.53)"><tspan x="0" y="0">C</tspan></text>
      <text class="cls-2" transform="translate(230.81 406.19) rotate(1.58)"><tspan x="0" y="0">E</tspan></text>
      <text class="cls-2" transform="translate(264.31 406.37) rotate(-4.46)"><tspan x="0" y="0"> </tspan></text>
      <text class="cls-2" transform="translate(284.51 404.65) rotate(-10.17)"><tspan x="0" y="0">2</tspan></text>
      <text class="cls-2" transform="translate(314.16 398.89) rotate(-17.41)"><tspan x="0" y="0">0</tspan></text>
      <text class="cls-2" transform="translate(345.22 388.53) rotate(-24.64)"><tspan x="0" y="0">2</tspan></text>
      <text class="cls-2" transform="translate(372.38 375.55) rotate(-31.53)"><tspan x="0" y="0">2</tspan></text>
    </g>
    <g>
      <text class="cls-1" transform="translate(146.19 153.41) rotate(-85.22)"><tspan x="0" y="0">P</tspan></text>
      <text class="cls-1" transform="translate(149.08 129.89) rotate(-74.72)"><tspan x="0" y="0">I</tspan></text>
      <text class="cls-1" transform="translate(152.94 116.02) rotate(-64.23)"><tspan x="0" y="0">Z</tspan></text>
      <text class="cls-1" transform="translate(163.69 95.06) rotate(-51.09)"><tspan x="0" y="0">Y</tspan></text>
      <text class="cls-1" transform="translate(179.82 76.7) rotate(-41.18)"><tspan x="0" y="0"> </tspan></text>
      <text class="cls-1" transform="translate(188.55 68.8) rotate(-30.61)"><tspan x="0" y="0">G</tspan></text>
      <text class="cls-1" transform="translate(211.85 55.92) rotate(-16.7)"><tspan x="0" y="0">R</tspan></text>
      <text class="cls-1" transform="translate(234.67 49.48) rotate(-2.62)"><tspan x="0" y="0">O</tspan></text>
      <text class="cls-1" transform="translate(262.33 48.92) rotate(12.15)"><tspan x="0" y="0">U</tspan></text>
      <text class="cls-1" transform="translate(288.18 55.32) rotate(25.99)"><tspan x="0" y="0">P</tspan></text>
    </g>
  </g>
  <g>
    <circle class="cls-4" cx="252.31" cy="155.08" r="152.58"/>
    <g>
      <g>
        <g>
          <path class="cls-6" d="M189.21,221.31c.08,8.77-6.96,15.95-15.74,16.04-8.77,.08-15.95-6.96-16.04-15.74l-60.7,.58c.4,42.07,35.2,76.16,77.38,75.76,42.18-.4,76.2-35.15,75.8-77.22l-60.7,.58Z"/>
          <g>
            <line class="cls-5" x1="121.22" y1="277.36" x2="161.79" y2="234.63"/>
            <line class="cls-5" x1="225.84" y1="274.55" x2="185.38" y2="234.63"/>
            <line class="cls-5" x1="173.47" y1="237.35" x2="174.05" y2="297.89"/>
          </g>
        </g>
        <g>
          <g>
            <path class="cls-6" d="M338.31,202.9c2,7.87-2.75,15.87-10.62,17.87-7.87,2-15.87-2.75-17.87-10.62l-54.44,13.85c9.6,37.73,48.37,60.73,86.19,51.1,37.83-9.62,60.77-48.33,51.17-86.06l-54.44,13.85Z"/>
            <g>
              <line class="cls-5" x1="289.51" y1="268.22" x2="316.6" y2="220.9"/>
              <line class="cls-5" x1="382.93" y1="242.71" x2="337.8" y2="215.72"/>
              <line class="cls-5" x1="327.69" y1="220.77" x2="341.5" y2="275.07"/>
            </g>
          </g>
          <g>
            <path class="cls-6" d="M309.67,209.55c-2-7.87,2.75-15.87,10.62-17.87,7.87-2,15.87,2.75,17.87,10.62l54.44-13.85c-9.6-37.73-48.37-60.73-86.19-51.1-37.83,9.62-60.77,48.33-51.17,86.06l54.44-13.85Z"/>
            <g>
              <line class="cls-5" x1="358.47" y1="144.23" x2="331.39" y2="191.55"/>
              <line class="cls-5" x1="265.05" y1="169.74" x2="310.19" y2="196.73"/>
              <line class="cls-5" x1="320.29" y1="191.67" x2="306.48" y2="137.38"/>
            </g>
          </g>
        </g>
        <g>
          <path class="cls-3" d="M194.06,285.19c-22.21-38.32-16.53-84.05,11.59-108.19-.46-.51-.87-1.08-1.23-1.7-2.89-4.98-1.17-11.42,3.81-14.31l3.29-1.91c4.98-2.89,11.42-1.17,14.31,3.81,.36,.62,.64,1.26,.86,1.91,34.92-12.41,77.43,5.39,99.64,43.71,22.18,38.27,16.55,83.93-11.49,108.09,.23,.31,.45,.63,.64,.97,2.89,4.98,1.17,11.42-3.81,14.31l-3.29,1.91c-4.98,2.89-11.42,1.17-14.31-3.81-.2-.34-.37-.69-.52-1.04-34.9,12.32-77.32-5.48-99.5-43.75Z"/>
          <g>
            <path class="cls-3" d="M286.13,85.97s-4.45,70.95-79.94,69.6c0,0,4.01-69.72,79.94-69.6Z"/>
            <line class="cls-4" x1="286.13" y1="85.97" x2="206.19" y2="155.57"/>
          </g>
          <path class="cls-5" d="M180.43,155.57s16.61-8.55,27.81,5.43"/>
        </g>
      </g>
      <g>
        <g>
          <line class="cls-5" x1="312.42" y1="110.17" x2="353.41" y2="110.17"/>
          <line class="cls-5" x1="320.31" y1="94.39" x2="345.52" y2="94.39"/>
        </g>
        <line class="cls-5" x1="147.56" y1="184.05" x2="164.11" y2="184.05"/>
        <line class="cls-5" x1="242.09" y1="301.58" x2="250.24" y2="301.58"/>
      </g>
    </g>
  </g>
</svg>