<?xml version="1.0" encoding="UTF-8"?>
<svg id="Layer_2" data-name="Layer 2" xmlns="http://www.w3.org/2000/svg" viewBox="0 0 313.16 337.69">
  <defs>
    <style>
      .cls-1 {
        stroke-miterlimit: 10;
      }

      .cls-1, .cls-2 {
        fill: none;
        stroke: #3c3c3b;
        stroke-width: 5px;
      }

      .cls-2 {
        stroke-linecap: round;
        stroke-linejoin: round;
      }
    </style>
  </defs>
  <path class="cls-1" d="M105.11,293.41c1.63,2.28,3.33,4.48,5.11,6.59-4.05-1.33-8.02-2.83-11.9-4.49,2.31-.6,4.57-1.3,6.79-2.11h0Z"/>
  <path class="cls-1" d="M244.6,243.4l.03,.35c-.05-.33-.1-.67-.15-1l.12,.65Z"/>
  <path class="cls-1" d="M247.34,275.1c2.83-.72,5.57-1.6,8.22-2.63-4.24,3.52-8.68,6.82-13.29,9.88,2.44-8.22,3.61-17.01,3.45-26.02l1.62,18.77Z"/>
  <path class="cls-1" d="M243.66,215.78c-.82,1.58-2.04,2.72-3.65,3.27l3.65,19.35c-2.14-10.12-5.97-20.24-11.56-29.89-2.98-5.14-6.32-9.9-9.95-14.28-5.72-6.87-12.17-12.77-19.09-17.62-.07-.05-.15-.11-.23-.16-1.29-.9-2.6-1.76-3.93-2.59-.04-.03-.09-.05-.13-.07-7.41-4.61-15.27-8.04-23.3-10.2-.04-.02-.09-.03-.14-.04-14.33-3.84-29.18-3.61-42.87,1.25-.22-.65-.5-1.29-.86-1.91-2.89-4.98-9.33-6.7-14.31-3.81l-3.29,1.91c-4.98,2.89-6.7,9.33-3.81,14.31,.36,.62,.77,1.19,1.23,1.7-16.44,14.11-25.2,35.59-25.22,58.67-2.09,1.05-4.46,1.65-6.96,1.68-8.77,.08-15.95-6.96-16.04-15.74l-42.27,.4c-9.88-20.2-15.43-42.92-15.43-66.93C5.5,70.81,73.81,2.5,158.08,2.5s152.58,68.31,152.58,152.58c0,19.23-3.56,37.62-10.04,54.56,.31-6.77-.36-13.7-2.11-20.6"/>
  <g>
    <g>
      <g>
        <path class="cls-2" d="M155.68,220.73c.32,33.24-20.86,61.91-50.57,72.67-2.22,.81-4.48,1.51-6.79,2.11-5.9,1.54-12.08,2.38-18.44,2.44-42.18,.4-76.98-33.69-77.38-75.76l18.43-.18,42.27-.4c.09,8.78,7.27,15.82,16.04,15.74,2.5-.03,4.87-.63,6.96-1.68,5.26-2.63,8.84-8.09,8.78-14.36l60.7-.58Z"/>
        <path class="cls-2" d="M79.88,297.95l-.17-11.93-.47-48.67c8.78-.09,15.82-7.27,15.74-16.04l60.7-.58"/>
        <g>
          <line class="cls-2" x1="26.99" y1="277.36" x2="67.56" y2="234.63"/>
          <line class="cls-2" x1="131.61" y1="274.55" x2="91.15" y2="234.63"/>
        </g>
      </g>
      <g>
        <g>
          <path class="cls-2" d="M243.66,215.78l46.36,27.97c-7.89,12.74-19.79,23.02-34.46,28.72-2.65,1.03-5.39,1.91-8.22,2.63l-1.62-18.77c-.08-4.16-.44-8.36-1.09-12.58l-.03-.35-.12-.65c-.24-1.45-.51-2.9-.82-4.35l-3.65-19.35c1.6-.74,2.81-2.18,3.65-3.27Z"/>
          <path class="cls-2" d="M243.66,238.4c.31,1.45,.58,2.9,.82,4.35l-.82-4.35Z"/>
          <path class="cls-2" d="M244.63,243.75c.65,4.22,1.01,8.42,1.09,12.58l-1.09-12.58Z"/>
          <path class="cls-2" d="M298.51,189.04c1.75,6.9,2.42,13.83,2.11,20.6-.44,11.13-4.14,21.88-8.85,31.13-.56,1.01-1.15,2-1.75,2.98l-45.95-28.91c3.24-6.27,1.66-10.31,.93-13.29"/>
          <path class="cls-2" d="M291.77,240.77c-.53,1.03-1.11,2.03-1.75,2.98,.6-.98,1.19-1.97,1.75-2.98Z"/>
          <line class="cls-2" x1="243.66" y1="215.78" x2="243.57" y2="215.72"/>
        </g>
        <g>
          <path class="cls-2" d="M224.61,195.62c8.85-4.81,16.69-1.24,20.51,6.41l53.25-13.59c-9.6-37.73-48.37-60.73-86.19-51.1,0,0-24.28,4.63-36.85,26.2,0,0,11.86,3.4,23.57,10.31,12.55,7.41,23.83,22.79,25.72,21.76Z"/>
          <g>
            <line class="cls-2" x1="264.24" y1="144.23" x2="236.28" y2="193.08"/>
            <line class="cls-2" x1="226.06" y1="191.67" x2="212.25" y2="137.38"/>
          </g>
        </g>
      </g>
      <g>
        <path class="cls-1" d="M245.72,256.33c.16,9.01-1.01,17.8-3.45,26.02-3.96,13.39-11.27,25.3-21.66,34.25,.23,.31,.45,.63,.64,.97,2.89,4.98,1.17,11.42-3.81,14.31l-3.29,1.91c-4.98,2.89-11.42,1.17-14.31-3.81-.2-.34-.37-.69-.52-1.04-30.03,10.6-65.62-1.1-89.1-28.94-1.78-2.11-3.48-4.31-5.11-6.59h0c29.71-10.77,50.89-39.44,50.57-72.68l-60.7,.58c.06,6.27-3.52,11.73-8.78,14.36,.02-23.08,8.78-44.56,25.22-58.67-.46-.51-.87-1.08-1.23-1.7-2.89-4.98-1.17-11.42,3.81-14.31l3.29-1.91c4.98-2.89,11.42-1.17,14.31,3.81,.36,.62,.64,1.26,.86,1.91,13.69-4.86,28.54-5.09,42.87-1.25,.05,.01,.1,.02,.14,.04,8.03,2.16,15.89,5.59,23.3,10.2,.04,.02,.09,.04,.13,.07,1.33,.83,2.64,1.69,3.93,2.59,.08,.05,.16,.11,.23,.16,6.92,4.85,13.37,10.75,19.09,17.62,3.63,4.38,6.97,9.14,9.95,14.28,5.59,9.65,9.42,19.77,11.56,29.89,.31,1.45,.58,2.9,.82,4.35,.05,.33,.1,.67,.15,1,.65,4.22,1.01,8.42,1.09,12.58Z"/>
        <g>
          <path class="cls-1" d="M191.9,85.97s-4.45,70.95-79.94,69.6c0,0,4.01-69.72,79.94-69.6Z"/>
          <line class="cls-1" x1="191.9" y1="85.97" x2="111.97" y2="155.57"/>
        </g>
        <path class="cls-2" d="M86.2,155.57s16.61-8.55,27.81,5.43"/>
      </g>
    </g>
    <g>
      <g>
        <line class="cls-2" x1="218.19" y1="110.17" x2="259.18" y2="110.17"/>
        <line class="cls-2" x1="226.08" y1="94.39" x2="251.29" y2="94.39"/>
      </g>
      <line class="cls-2" x1="53.33" y1="184.05" x2="69.88" y2="184.05"/>
      <line class="cls-2" x1="147.86" y1="301.58" x2="156.01" y2="301.58"/>
    </g>
  </g>
</svg>