<?xml version="1.0" encoding="UTF-8" standalone="no"?>
<!-- Created with Inkscape (http://www.inkscape.org/) -->

<svg
   version="1.1"
   id="svg2"
   xml:space="preserve"
   width="666.66669"
   height="666.66669"
   viewBox="0 0 666.66669 666.66669"
   sodipodi:docname="limao.ai"
   xmlns:inkscape="http://www.inkscape.org/namespaces/inkscape"
   xmlns:sodipodi="http://sodipodi.sourceforge.net/DTD/sodipodi-0.dtd"
   xmlns="http://www.w3.org/2000/svg"
   xmlns:svg="http://www.w3.org/2000/svg"><defs
     id="defs6"><clipPath
       clipPathUnits="userSpaceOnUse"
       id="clipPath16"><path
         d="M 0,500 H 500 V 0 H 0 Z"
         id="path14" /></clipPath><clipPath
       clipPathUnits="userSpaceOnUse"
       id="clipPath24"><path
         d="M 178.998,361.248 H 320.381 V 141.515 H 178.998 Z"
         id="path22" /></clipPath></defs><sodipodi:namedview
     id="namedview4"
     pagecolor="#ffffff"
     bordercolor="#666666"
     borderopacity="1.0"
     inkscape:pageshadow="2"
     inkscape:pageopacity="0.0"
     inkscape:pagecheckerboard="0" /><g
     id="g8"
     inkscape:groupmode="layer"
     inkscape:label="limao"
     transform="matrix(1.3333333,0,0,-1.3333333,0,666.66667)"><g
       id="g10"><g
         id="g12"
         clip-path="url(#clipPath16)"><g
           id="g18"><g
             id="g20" /><g
             id="g48"><g
               clip-path="url(#clipPath24)"
               opacity="0.5"
               id="g46"><g
                 transform="translate(191.9061,186.1999)"
                 id="g28"><path
                   d="m 0,0 c -19.404,33.478 -14.441,73.43 10.134,94.52 -0.402,0.445 -0.76,0.943 -1.074,1.485 -2.525,4.351 -1.022,9.977 3.328,12.502 l 2.875,1.668 c 4.35,2.525 9.977,1.022 12.501,-3.328 0.315,-0.542 0.56,-1.101 0.752,-1.669 30.507,10.842 67.646,-4.709 87.05,-38.187 19.377,-33.434 14.459,-73.325 -10.038,-94.432 0.2,-0.271 0.393,-0.551 0.559,-0.848 2.525,-4.35 1.022,-9.977 -3.329,-12.501 l -2.874,-1.669 c -4.351,-2.525 -9.977,-1.022 -12.502,3.328 -0.175,0.297 -0.323,0.603 -0.454,0.909 C 56.437,-48.985 19.377,-33.434 0,0 Z"
                   style="fill:none;stroke:#3d3d3c;stroke-width:2;stroke-linecap:butt;stroke-linejoin:miter;stroke-miterlimit:10;stroke-dasharray:none;stroke-opacity:1"
                   id="path26" /></g><g
                 transform="translate(272.3426,360.2474)"
                 id="g32"><path
                   d="m 0,0 c 0,0 -3.888,-61.985 -69.839,-60.806 0,0 3.503,60.911 69.839,60.806 z"
                   style="fill:none;stroke:#3d3d3c;stroke-width:2;stroke-linecap:butt;stroke-linejoin:miter;stroke-miterlimit:10;stroke-dasharray:none;stroke-opacity:1"
                   id="path30" /></g><g
                 transform="translate(272.3426,360.2474)"
                 id="g36"><path
                   d="M 0,0 -69.839,-60.806"
                   style="fill:none;stroke:#3d3d3c;stroke-width:2;stroke-linecap:butt;stroke-linejoin:miter;stroke-miterlimit:10;stroke-dasharray:none;stroke-opacity:1"
                   id="path34" /></g><g
                 transform="translate(179.9984,299.4417)"
                 id="g40"><path
                   d="M 0,0 C 0,0 14.511,7.47 24.296,-4.744"
                   style="fill:none;stroke:#3d3d3c;stroke-width:2;stroke-linecap:round;stroke-linejoin:round;stroke-miterlimit:4;stroke-dasharray:none;stroke-opacity:1"
                   id="path38" /></g><g
                 transform="translate(233.8673,171.8809)"
                 id="g44"><path
                   d="M 0,0 H 7.12"
                   style="fill:none;stroke:#3d3d3c;stroke-width:2;stroke-linecap:round;stroke-linejoin:round;stroke-miterlimit:4;stroke-dasharray:none;stroke-opacity:1"
                   id="path42" /></g></g></g></g></g></g></g></svg>
