<?xml version="1.0" encoding="UTF-8" standalone="no"?>
<!-- Created with Inkscape (http://www.inkscape.org/) -->

<svg
   version="1.1"
   id="svg2"
   xml:space="preserve"
   width="666.66669"
   height="666.66669"
   viewBox="0 0 666.66669 666.66669"
   sodipodi:docname="Untitled-1.ai"
   xmlns:inkscape="http://www.inkscape.org/namespaces/inkscape"
   xmlns:sodipodi="http://sodipodi.sourceforge.net/DTD/sodipodi-0.dtd"
   xmlns="http://www.w3.org/2000/svg"
   xmlns:svg="http://www.w3.org/2000/svg"><defs
     id="defs6"><clipPath
       clipPathUnits="userSpaceOnUse"
       id="clipPath16"><path
         d="M 0,500 H 500 V 0 H 0 Z"
         id="path14" /></clipPath></defs><sodipodi:namedview
     id="namedview4"
     pagecolor="#ffffff"
     bordercolor="#666666"
     borderopacity="1.0"
     inkscape:pageshadow="2"
     inkscape:pageopacity="0.0"
     inkscape:pagecheckerboard="0" /><g
     id="g8"
     inkscape:groupmode="layer"
     inkscape:label="Untitled-1"
     transform="matrix(1.3333333,0,0,-1.3333333,0,666.66667)"><g
       id="g10"><g
         id="g12"
         clip-path="url(#clipPath16)"><g
           id="g18"
           transform="translate(214.945,212.1884)"><path
             d="m 0,0 c -11.667,20.13 -8.683,44.153 6.094,56.834 -0.242,0.267 -0.457,0.567 -0.647,0.893 -1.518,2.616 -0.614,5.999 2.002,7.517 l 1.728,1.003 c 2.616,1.518 5.999,0.615 7.517,-2.001 0.19,-0.326 0.337,-0.662 0.452,-1.004 18.344,6.519 40.675,-2.831 52.342,-22.961 11.652,-20.104 8.694,-44.09 -6.036,-56.781 0.121,-0.163 0.237,-0.331 0.337,-0.51 1.518,-2.616 0.614,-5.999 -2.002,-7.517 l -1.728,-1.003 c -2.616,-1.518 -5.999,-0.615 -7.517,2.001 -0.105,0.179 -0.195,0.363 -0.273,0.547 C 33.935,-29.454 11.651,-20.104 0,0 Z"
             style="fill:none;stroke:#3d3d3c;stroke-width:2;stroke-linecap:butt;stroke-linejoin:miter;stroke-miterlimit:10;stroke-dasharray:none;stroke-opacity:1"
             id="path20" /></g><g
           id="g22"
           transform="translate(263.3105,316.8411)"><path
             d="m 0,0 c 0,0 -2.338,-37.271 -41.993,-36.562 0,0 2.106,36.625 41.993,36.562 z"
             style="fill:none;stroke:#3d3d3c;stroke-width:2;stroke-linecap:butt;stroke-linejoin:miter;stroke-miterlimit:10;stroke-dasharray:none;stroke-opacity:1"
             id="path24" /></g><g
           id="g26"
           transform="translate(263.3105,316.8411)"><path
             d="M 0,0 -41.993,-36.562"
             style="fill:none;stroke:#3d3d3c;stroke-width:2;stroke-linecap:butt;stroke-linejoin:miter;stroke-miterlimit:10;stroke-dasharray:none;stroke-opacity:1"
             id="path28" /></g><g
           id="g30"
           transform="translate(207.785,280.2794)"><path
             d="M 0,0 C 0,0 8.725,4.491 14.609,-2.852"
             style="fill:none;stroke:#3d3d3c;stroke-width:2;stroke-linecap:round;stroke-linejoin:round;stroke-miterlimit:4;stroke-dasharray:none;stroke-opacity:1"
             id="path32" /></g><g
           id="g34"
           transform="translate(240.1758,203.5785)"><path
             d="M 0,0 H 4.281"
             style="fill:none;stroke:#3d3d3c;stroke-width:2;stroke-linecap:round;stroke-linejoin:round;stroke-miterlimit:4;stroke-dasharray:none;stroke-opacity:1"
             id="path36" /></g></g></g></g></svg>
