<?xml version="1.0" encoding="UTF-8"?>
<svg id="Layer_2" data-name="Layer 2" xmlns="http://www.w3.org/2000/svg" viewBox="0 0 313.16 337.69">
  <defs>
    <style>
      .cls-1 {
        fill: #3c3c3b;
        font-family: MyriadPro-Bold, 'Myriad Pro';
        font-size: 31.56px;
      }

      .cls-2, .cls-3 {
        stroke-miterlimit: 10;
      }

      .cls-2, .cls-3, .cls-4, .cls-5 {
        stroke: #3c3c3b;
        stroke-width: 5px;
      }

      .cls-2, .cls-5 {
        fill: #f9f0a0;
      }

      .cls-3, .cls-4 {
        fill: none;
      }

      .cls-4, .cls-5 {
        stroke-linecap: round;
        stroke-linejoin: round;
      }
    </style>
  </defs>
  <g id="Layer_1-2" data-name="Layer 1">
    <g>
      <g>
        <circle class="cls-3" cx="158.08" cy="155.08" r="152.58"/>
        <g>
          <g>
            <g>
              <path class="cls-5" d="M94.98,221.31c.08,8.77-6.96,15.95-15.74,16.04-8.77,.08-15.95-6.96-16.04-15.74l-60.7,.58c.4,42.07,35.2,76.16,77.38,75.76,42.18-.4,76.2-35.15,75.8-77.22l-60.7,.58Z"/>
              <g>
                <line class="cls-4" x1="26.99" y1="277.36" x2="67.56" y2="234.63"/>
                <line class="cls-4" x1="131.61" y1="274.55" x2="91.15" y2="234.63"/>
                <line class="cls-4" x1="79.24" y1="237.35" x2="79.82" y2="297.89"/>
              </g>
            </g>
            <g>
              <g>
                <path class="cls-5" d="M244.08,202.9c2,7.87-2.75,15.87-10.62,17.87-7.87,2-15.87-2.75-17.87-10.62l-54.44,13.85c9.6,37.73,48.37,60.73,86.19,51.1,37.83-9.62,60.77-48.33,51.17-86.06l-54.44,13.85Z"/>
                <g>
                  <line class="cls-4" x1="195.28" y1="268.22" x2="222.37" y2="220.9"/>
                  <line class="cls-4" x1="288.7" y1="242.71" x2="243.57" y2="215.72"/>
                  <line class="cls-4" x1="233.46" y1="220.77" x2="247.28" y2="275.07"/>
                </g>
              </g>
              <g>
                <path class="cls-5" d="M215.44,209.55c-2-7.87,2.75-15.87,10.62-17.87,7.87-2,15.87,2.75,17.87,10.62l54.44-13.85c-9.6-37.73-48.37-60.73-86.19-51.1-37.83,9.62-60.77,48.33-51.17,86.06l54.44-13.85Z"/>
                <g>
                  <line class="cls-4" x1="264.24" y1="144.23" x2="237.16" y2="191.55"/>
                  <line class="cls-4" x1="170.82" y1="169.74" x2="215.96" y2="196.73"/>
                  <line class="cls-4" x1="226.06" y1="191.67" x2="212.25" y2="137.38"/>
                </g>
              </g>
            </g>
            <g>
              <path class="cls-2" d="M99.83,285.19c-22.21-38.32-16.53-84.05,11.59-108.19-.46-.51-.87-1.08-1.23-1.7-2.89-4.98-1.17-11.42,3.81-14.31l3.29-1.91c4.98-2.89,11.42-1.17,14.31,3.81,.36,.62,.64,1.26,.86,1.91,34.92-12.41,77.43,5.39,99.64,43.71,22.18,38.27,16.55,83.93-11.49,108.09,.23,.31,.45,.63,.64,.97,2.89,4.98,1.17,11.42-3.81,14.31l-3.29,1.91c-4.98,2.89-11.42,1.17-14.31-3.81-.2-.34-.37-.69-.52-1.04-34.9,12.32-77.32-5.48-99.5-43.75Z"/>
              <g>
                <path class="cls-2" d="M191.9,85.97s-4.45,70.95-79.94,69.6c0,0,4.01-69.72,79.94-69.6Z"/>
                <line class="cls-3" x1="191.9" y1="85.97" x2="111.97" y2="155.57"/>
              </g>
              <path class="cls-4" d="M86.2,155.57s16.61-8.55,27.81,5.43"/>
            </g>
          </g>
          <g>
            <g>
              <line class="cls-4" x1="218.19" y1="110.17" x2="259.18" y2="110.17"/>
              <line class="cls-4" x1="226.08" y1="94.39" x2="251.29" y2="94.39"/>
            </g>
            <line class="cls-4" x1="53.33" y1="184.05" x2="69.88" y2="184.05"/>
            <line class="cls-4" x1="147.86" y1="301.58" x2="156.01" y2="301.58"/>
          </g>
        </g>
      </g>
      <g>
        <text class="cls-1" transform="translate(51.96 153.41) rotate(-85.22)"><tspan x="0" y="0">P</tspan></text>
        <text class="cls-1" transform="translate(54.85 129.89) rotate(-74.72)"><tspan x="0" y="0">I</tspan></text>
        <text class="cls-1" transform="translate(58.71 116.02) rotate(-64.23)"><tspan x="0" y="0">Z</tspan></text>
        <text class="cls-1" transform="translate(69.46 95.06) rotate(-51.09)"><tspan x="0" y="0">Y</tspan></text>
        <text class="cls-1" transform="translate(85.59 76.7) rotate(-41.18)"><tspan x="0" y="0"> </tspan></text>
        <text class="cls-1" transform="translate(94.32 68.8) rotate(-30.61)"><tspan x="0" y="0">G</tspan></text>
        <text class="cls-1" transform="translate(117.62 55.92) rotate(-16.7)"><tspan x="0" y="0">R</tspan></text>
        <text class="cls-1" transform="translate(140.44 49.48) rotate(-2.62)"><tspan x="0" y="0">O</tspan></text>
        <text class="cls-1" transform="translate(168.1 48.92) rotate(12.15)"><tspan x="0" y="0">U</tspan></text>
        <text class="cls-1" transform="translate(193.95 55.32) rotate(25.99)"><tspan x="0" y="0">P</tspan></text>
      </g>
    </g>
  </g>
</svg>