<?xml version="1.0" encoding="UTF-8"?>
<svg id="Layer_2" data-name="Layer 2" xmlns="http://www.w3.org/2000/svg" viewBox="0 0 164.54 254.22">
  <defs>
    <style>
      .cls-1 {
        fill: #f9f0a0;
      }

      .cls-1, .cls-2 {
        stroke-miterlimit: 10;
      }

      .cls-1, .cls-2, .cls-3 {
        stroke: #3c3c3b;
        stroke-width: 5px;
      }

      .cls-2, .cls-3 {
        fill: none;
      }

      .cls-3 {
        stroke-linecap: round;
        stroke-linejoin: round;
      }
    </style>
  </defs>
  <g id="Layer_1-2" data-name="Layer 1">
    <g>
      <g>
        <path class="cls-1" d="M16.13,201.72C-6.08,163.4-.4,117.67,27.73,93.53c-.46-.51-.87-1.08-1.23-1.7-2.89-4.98-1.17-11.42,3.81-14.31l3.29-1.91c4.98-2.89,11.42-1.17,14.31,3.81,.36,.62,.64,1.26,.86,1.91,34.92-12.41,77.43,5.39,99.64,43.71,22.18,38.27,16.55,83.93-11.49,108.09,.23,.31,.45,.63,.64,.97,2.89,4.98,1.17,11.42-3.81,14.31l-3.29,1.91c-4.98,2.89-11.42,1.17-14.31-3.81-.2-.34-.37-.69-.52-1.04-34.9,12.32-77.32-5.48-99.5-43.75Z"/>
        <g>
          <path class="cls-1" d="M108.2,2.5s-4.45,70.95-79.94,69.6c0,0,4.01-69.72,79.94-69.6Z"/>
          <line class="cls-2" x1="108.2" y1="2.5" x2="28.26" y2="72.1"/>
        </g>
        <path class="cls-3" d="M2.5,72.1s16.61-8.55,27.81,5.43"/>
      </g>
      <line class="cls-3" x1="64.16" y1="218.11" x2="72.31" y2="218.11"/>
    </g>
  </g>
</svg>