<svg width="638" height="401" viewBox="0 0 638 401" fill="none" xmlns="http://www.w3.org/2000/svg">
<g opacity="0.15">
<path d="M31 1H-33V65H31V1Z" stroke="white" stroke-width="1.5"/>
<path d="M95 1H31V65H95V1Z" stroke="white" stroke-width="1.5"/>
<path d="M159 1H95V65H159V1Z" stroke="white" stroke-width="1.5"/>
<path d="M223 1H159V65H223V1Z" stroke="white" stroke-width="1.5"/>
<path d="M287 1H223V65H287V1Z" stroke="white" stroke-width="1.5"/>
<path d="M351 1H287V65H351V1Z" stroke="white" stroke-width="1.5"/>
<path d="M415 1H351V65H415V1Z" stroke="white" stroke-width="1.5"/>
<path d="M479 1H415V65H479V1Z" stroke="white" stroke-width="1.5"/>
<path d="M543 1H479V65H543V1Z" stroke="white" stroke-width="1.5"/>
<path d="M607 1H543V65H607V1Z" stroke="white" stroke-width="1.5"/>
<path d="M671 1H607V65H671V1Z" stroke="white" stroke-width="1.5"/>
<path d="M31 65H-33V129H31V65Z" stroke="white" stroke-width="1.5"/>
<path d="M95 65H31V129H95V65Z" stroke="white" stroke-width="1.5"/>
<path d="M159 65H95V129H159V65Z" stroke="white" stroke-width="1.5"/>
<path d="M223 65H159V129H223V65Z" stroke="white" stroke-width="1.5"/>
<path d="M287 65H223V129H287V65Z" stroke="white" stroke-width="1.5"/>
<path d="M351 65H287V129H351V65Z" stroke="white" stroke-width="1.5"/>
<path d="M415 65H351V129H415V65Z" stroke="white" stroke-width="1.5"/>
<path d="M479 65H415V129H479V65Z" stroke="white" stroke-width="1.5"/>
<path d="M543 65H479V129H543V65Z" stroke="white" stroke-width="1.5"/>
<path d="M607 65H543V129H607V65Z" stroke="white" stroke-width="1.5"/>
<path d="M671 65H607V129H671V65Z" stroke="white" stroke-width="1.5"/>
<path d="M31 129H-33V193H31V129Z" stroke="white" stroke-width="1.5"/>
<path d="M95 129H31V193H95V129Z" stroke="white" stroke-width="1.5"/>
<path d="M159 129H95V193H159V129Z" stroke="white" stroke-width="1.5"/>
<path d="M223 129H159V193H223V129Z" stroke="white" stroke-width="1.5"/>
<path d="M287 129H223V193H287V129Z" stroke="white" stroke-width="1.5"/>
<path d="M351 129H287V193H351V129Z" stroke="white" stroke-width="1.5"/>
<path d="M415 129H351V193H415V129Z" stroke="white" stroke-width="1.5"/>
<path d="M479 129H415V193H479V129Z" stroke="white" stroke-width="1.5"/>
<path d="M543 129H479V193H543V129Z" stroke="white" stroke-width="1.5"/>
<path d="M607 129H543V193H607V129Z" stroke="white" stroke-width="1.5"/>
<path d="M671 129H607V193H671V129Z" stroke="white" stroke-width="1.5"/>
<path d="M31 193H-33V257H31V193Z" stroke="white" stroke-width="1.5"/>
<path d="M95 193H31V257H95V193Z" stroke="white" stroke-width="1.5"/>
<path d="M159 193H95V257H159V193Z" stroke="white" stroke-width="1.5"/>
<path d="M223 193H159V257H223V193Z" stroke="white" stroke-width="1.5"/>
<path d="M287 193H223V257H287V193Z" stroke="white" stroke-width="1.5"/>
<path d="M351 193H287V257H351V193Z" stroke="white" stroke-width="1.5"/>
<path d="M415 193H351V257H415V193Z" stroke="white" stroke-width="1.5"/>
<path d="M479 193H415V257H479V193Z" stroke="white" stroke-width="1.5"/>
<path d="M543 193H479V257H543V193Z" stroke="white" stroke-width="1.5"/>
<path d="M607 193H543V257H607V193Z" stroke="white" stroke-width="1.5"/>
<path d="M671 193H607V257H671V193Z" stroke="white" stroke-width="1.5"/>
<path d="M31 257H-33V321H31V257Z" stroke="white" stroke-width="1.5"/>
<path d="M95 257H31V321H95V257Z" stroke="white" stroke-width="1.5"/>
<path d="M159 257H95V321H159V257Z" stroke="white" stroke-width="1.5"/>
<path d="M223 257H159V321H223V257Z" stroke="white" stroke-width="1.5"/>
<path d="M287 257H223V321H287V257Z" stroke="white" stroke-width="1.5"/>
<path d="M351 257H287V321H351V257Z" stroke="white" stroke-width="1.5"/>
<path d="M415 257H351V321H415V257Z" stroke="white" stroke-width="1.5"/>
<path d="M479 257H415V321H479V257Z" stroke="white" stroke-width="1.5"/>
<path d="M543 257H479V321H543V257Z" stroke="white" stroke-width="1.5"/>
<path d="M607 257H543V321H607V257Z" stroke="white" stroke-width="1.5"/>
<path d="M671 257H607V321H671V257Z" stroke="white" stroke-width="1.5"/>
<path d="M31 321H-33V385H31V321Z" stroke="white" stroke-width="1.5"/>
<path d="M95 321H31V385H95V321Z" stroke="white" stroke-width="1.5"/>
<path d="M159 321H95V385H159V321Z" stroke="white" stroke-width="1.5"/>
<path d="M223 321H159V385H223V321Z" stroke="white" stroke-width="1.5"/>
<path d="M287 321H223V385H287V321Z" stroke="white" stroke-width="1.5"/>
<path d="M351 321H287V385H351V321Z" stroke="white" stroke-width="1.5"/>
<path d="M415 321H351V385H415V321Z" stroke="white" stroke-width="1.5"/>
<path d="M479 321H415V385H479V321Z" stroke="white" stroke-width="1.5"/>
<path d="M543 321H479V385H543V321Z" stroke="white" stroke-width="1.5"/>
<path d="M607 321H543V385H607V321Z" stroke="white" stroke-width="1.5"/>
<path d="M671 321H607V385H671V321Z" stroke="white" stroke-width="1.5"/>
<path d="M31 385H-33V449H31V385Z" stroke="white" stroke-width="1.5"/>
<path d="M95 385H31V449H95V385Z" stroke="white" stroke-width="1.5"/>
<path d="M159 385H95V449H159V385Z" stroke="white" stroke-width="1.5"/>
<path d="M223 385H159V449H223V385Z" stroke="white" stroke-width="1.5"/>
<path d="M287 385H223V449H287V385Z" stroke="white" stroke-width="1.5"/>
<path d="M351 385H287V449H351V385Z" stroke="white" stroke-width="1.5"/>
<path d="M415 385H351V449H415V385Z" stroke="white" stroke-width="1.5"/>
<path d="M479 385H415V449H479V385Z" stroke="white" stroke-width="1.5"/>
<path d="M543 385H479V449H543V385Z" stroke="white" stroke-width="1.5"/>
<path d="M607 385H543V449H607V385Z" stroke="white" stroke-width="1.5"/>
<path d="M671 385H607V449H671V385Z" stroke="white" stroke-width="1.5"/>
</g>
</svg>
