<svg width="61" height="65" viewBox="0 0 61 65" fill="none" xmlns="http://www.w3.org/2000/svg">
<path d="M60.6923 33.4735C60.6923 26.701 55.2032 21.2119 48.4306 21.2119C46.6831 21.2119 43.5181 22.2437 43.5181 22.2437L20.0874 24.7142C20.0874 24.7142 15.2373 21.892 12.2634 21.892C5.48908 21.892 0 27.3811 0 34.1536C0 34.5767 0.0214207 34.9944 0.0624773 35.4068C0.724737 51.5813 14.011 64.4998 30.3461 64.4998C47.1061 64.4998 60.6923 50.9136 60.6923 34.1536C60.6923 34.0608 60.6762 33.9734 60.6708 33.8805C60.6762 33.7449 60.6923 33.611 60.6923 33.4735Z" fill="url(#paint0_linear_483_1099)"/>
<path d="M51.9919 24.7843C50.3121 24.3487 50.1907 25.4733 48.0611 25.2234C45.9762 24.9788 48.8269 23.9042 47.7131 23.2741C47.3382 23.0617 46.8009 23.017 46.1386 23.0992C44.2607 23.3294 15.8746 24.0702 14.8161 24.5808C13.8753 25.0342 13.3184 25.559 12.4633 24.761C11.387 23.7578 9.84644 24.3362 9.40017 24.67C8.82538 25.102 8.70578 25.9588 9.81788 26.9495C10.9264 27.6993 12.8043 28.4829 16.0031 29.0184C16.3548 29.0773 16.6547 29.1005 16.9349 29.1113C19.1252 29.1844 19.4287 26.1302 22.5222 26.0481C24.55 25.9945 42.431 27.9581 43.9037 27.7582C44.084 27.7332 44.2732 27.7153 44.491 27.7153C47.2811 27.7153 47.9291 30.3037 50.8976 28.2794C52.1561 27.2566 54.1304 25.3376 51.9919 24.7843Z" fill="#F19020"/>
<path d="M8.81464 16.5088C11.5333 19.2346 13.463 22.1228 14.816 24.5826C15.8264 26.4195 16.5226 28.026 16.9349 29.1131C19.1252 29.1863 19.4286 27.9172 22.5222 27.835C24.55 27.7815 25.7049 29.2078 27.2044 30.0289C29.8856 31.4962 31.7902 28.7258 33.8431 28.7258C35.3604 28.7258 37.8041 30.8804 39.5124 30.0896C41.9883 28.9418 42.431 27.9636 43.9037 27.7618C44.4785 26.3499 45.2264 24.7344 46.1386 23.1046C47.4595 20.7412 49.1339 18.3474 51.21 16.5124H8.81464V16.5088Z" fill="#CE5C1F"/>
<path d="M8.81464 16.5088C11.5333 19.2346 13.463 22.1228 14.816 24.5826C15.8264 26.4195 16.5226 28.026 16.9349 29.1131C19.1252 29.1863 19.4286 27.9172 22.5222 27.835C24.55 27.7815 25.7049 29.2078 27.2044 30.0289C29.8856 31.4962 31.7902 28.7258 33.8431 28.7258C35.3604 28.7258 37.8041 30.8804 39.5124 30.0896C41.9883 28.9418 42.431 27.9636 43.9037 27.7618C44.4785 26.3499 45.2264 24.7344 46.1386 23.1046C47.4595 20.7412 49.1339 18.3474 51.21 16.5124H8.81464V16.5088Z" fill="url(#paint1_linear_483_1099)"/>
<path d="M30.3461 60.1946C34.6169 60.1946 38.079 56.2386 38.079 51.3585C38.079 46.4785 34.6169 42.5225 30.3461 42.5225C26.0754 42.5225 22.6132 46.4785 22.6132 51.3585C22.6132 56.2386 26.0754 60.1946 30.3461 60.1946Z" fill="#65471B"/>
<path d="M23.2059 37.0204C23.2059 39.6498 21.6065 41.7811 19.6357 41.7811C17.6632 41.7811 16.0656 39.6498 16.0656 37.0204C16.0656 34.391 17.6632 32.2596 19.6357 32.2596C21.6065 32.2596 23.2059 34.391 23.2059 37.0204ZM44.6267 37.0186C44.6267 39.648 43.029 41.7794 41.0565 41.7794C39.084 41.7794 37.4864 39.648 37.4864 37.0186C37.4864 34.391 39.0858 32.2578 41.0565 32.2578C43.029 32.2596 44.6267 34.391 44.6267 37.0186Z" fill="#65471B"/>
<path d="M53.7751 6.88697C53.3467 6.88697 52.9415 6.9673 52.5506 7.08154C51.3225 5.57316 49.4749 4.58959 47.3775 4.58959C47.2222 4.58959 47.0758 4.62529 46.9223 4.636C45.612 3.15975 43.7199 2.21009 41.5903 2.21009C38.9037 2.21009 36.5921 3.70776 35.3675 5.89804C34.7499 4.47356 33.3343 3.47571 31.6832 3.47571C30.4015 3.47571 29.2751 4.0862 28.5397 5.01979C27.6328 2.39574 25.1694 0.5 22.2384 0.5C19.8767 0.5 17.8114 1.72991 16.619 3.57567C16.2905 3.5239 15.9621 3.47214 15.6193 3.47214C13.0631 3.47214 10.8693 4.92161 9.74111 7.02799C9.37874 6.96016 9.00924 6.91553 8.62723 6.91553C5.29987 6.91553 2.60263 9.61277 2.60263 12.9401C2.60263 16.2675 5.29987 18.9647 8.62723 18.9647C9.67685 18.9647 10.6533 18.6809 11.5083 18.2061C12.1795 18.7095 13.0042 19.0201 13.9092 19.0201C14.1681 19.0201 14.418 18.9915 14.6625 18.9433C16.1888 21.4049 18.8878 23.0543 21.9974 23.0543C25.0481 23.0543 27.7203 21.4745 29.268 19.0968C30.5532 20.6713 32.4846 21.6977 34.6749 21.6977C37.9148 21.6977 40.6138 19.4878 41.4153 16.5013C41.476 16.5031 41.5314 16.5192 41.5921 16.5192C42.0972 16.5192 42.5899 16.4639 43.0665 16.3639C44.234 17.3564 45.7281 17.9776 47.381 17.9776C49.4767 17.9776 51.326 16.994 52.5524 15.4856C52.9433 15.5999 53.3485 15.6802 53.7769 15.6802C56.2046 15.6802 58.1735 13.7113 58.1735 11.2836C58.1735 8.8559 56.2028 6.88697 53.7751 6.88697Z" fill="#BFBFBF"/>
<path d="M47.8309 14.3183C49.9219 14.3183 51.617 12.6232 51.617 10.5322C51.617 8.4412 49.9219 6.74609 47.8309 6.74609C45.7399 6.74609 44.0448 8.4412 44.0448 10.5322C44.0448 12.6232 45.7399 14.3183 47.8309 14.3183Z" fill="#DADADA"/>
<path d="M33.6949 10.7748C33.6949 8.6452 31.9687 6.91726 29.8391 6.91726C29.1822 6.91726 28.5717 7.09755 28.0309 7.38673C27.5828 6.3139 26.5243 5.55882 25.2872 5.55882C24.2751 5.55882 23.3826 6.06756 22.8453 6.8405C21.6493 5.7284 20.0588 5.03223 18.2969 5.03223C15.1641 5.03223 12.5561 7.19216 11.826 10.0982C11.1745 9.44313 10.273 9.03613 9.27518 9.03613C7.29197 9.03613 5.68362 10.6445 5.68362 12.6277C5.68362 14.6109 7.29197 16.2192 9.27518 16.2192C10.5301 16.2192 11.6297 15.5748 12.2723 14.6002C13.1952 16.5298 15.0017 17.9436 17.1795 18.3113C17.8756 19.5073 19.1555 20.3195 20.6389 20.3195C22.5561 20.3195 24.1537 18.9736 24.5536 17.1778C25.1319 17.4991 25.787 17.6991 26.4939 17.6991C28.404 17.6991 29.9962 16.362 30.4032 14.5752C32.2633 14.2985 33.6949 12.7116 33.6949 10.7748Z" fill="#DADADA"/>
<defs>
<linearGradient id="paint0_linear_483_1099" x1="30.3461" y1="21.2119" x2="30.3461" y2="64.4998" gradientUnits="userSpaceOnUse">
<stop stop-color="#FFE39C"/>
<stop offset="0.416667" stop-color="#FFCC4D"/>
<stop offset="1" stop-color="#FFB600"/>
</linearGradient>
<linearGradient id="paint1_linear_483_1099" x1="39.6991" y1="12.1491" x2="40.8732" y2="34.9943" gradientUnits="userSpaceOnUse">
<stop stop-color="#FF95C1"/>
<stop offset="0.510417" stop-color="#FF1074"/>
<stop offset="1"/>
</linearGradient>
</defs>
</svg>
