<svg width="64" height="64" viewBox="0 0 64 64" fill="none" xmlns="http://www.w3.org/2000/svg">
<path d="M64 32C64 49.6729 49.6729 64 32 64C14.3271 64 0 49.6729 0 32C0 14.3271 14.3271 0 32 0C49.6729 0 64 14.3271 64 32Z" fill="#FFCC4D"/>
<path d="M64 32C64 49.6729 49.6729 64 32 64C14.3271 64 0 49.6729 0 32C0 14.3271 14.3271 0 32 0C49.6729 0 64 14.3271 64 32Z" fill="url(#paint0_linear_483_1086)"/>
<path fill-rule="evenodd" clip-rule="evenodd" d="M2.20444 19.5876C2.63111 20.0125 4.76088 21.2889 5.18577 22.5653C5.61244 23.84 6.46577 31.0702 9.02222 33.1982C11.6587 35.3885 21.6035 34.5742 23.5075 33.6249C27.7689 31.5005 28.2915 25.5698 29.0453 22.5653C29.4702 20.864 32.0267 20.864 32.0267 20.864C32.0267 20.864 34.5831 20.864 35.0098 22.5636C35.7635 25.5698 36.2898 31.5005 40.5476 33.6231C42.4533 34.5742 52.3982 35.3902 55.0382 33.2C57.5911 31.072 58.4427 23.8418 58.8693 22.5653C59.2924 21.2907 61.4258 20.0142 61.8507 19.5893C62.2791 19.1645 62.2791 17.4631 61.8507 17.0365C60.9991 16.1867 50.9458 15.4293 40.1209 16.6116C37.9609 16.848 37.1395 17.4613 32.0249 17.4613C26.9138 17.4613 26.0889 16.8462 23.9307 16.6116C13.1129 15.4276 3.05777 16.1849 2.20444 17.0347C1.77955 17.4596 1.77955 19.1627 2.20444 19.5876Z" fill="#292F33"/>
<path fill-rule="evenodd" clip-rule="evenodd" d="M2.20444 19.5876C2.63111 20.0125 4.76088 21.2889 5.18577 22.5653C5.61244 23.84 6.46577 31.0702 9.02222 33.1982C11.6587 35.3885 21.6035 34.5742 23.5075 33.6249C27.7689 31.5005 28.2915 25.5698 29.0453 22.5653C29.4702 20.864 32.0267 20.864 32.0267 20.864C32.0267 20.864 34.5831 20.864 35.0098 22.5636C35.7635 25.5698 36.2898 31.5005 40.5476 33.6231C42.4533 34.5742 52.3982 35.3902 55.0382 33.2C57.5911 31.072 58.4427 23.8418 58.8693 22.5653C59.2924 21.2907 61.4258 20.0142 61.8507 19.5893C62.2791 19.1645 62.2791 17.4631 61.8507 17.0365C60.9991 16.1867 50.9458 15.4293 40.1209 16.6116C37.9609 16.848 37.1395 17.4613 32.0249 17.4613C26.9138 17.4613 26.0889 16.8462 23.9307 16.6116C13.1129 15.4276 3.05777 16.1849 2.20444 17.0347C1.77955 17.4596 1.77955 19.1627 2.20444 19.5876Z" fill="url(#paint1_linear_483_1086)"/>
<path d="M48.5956 42.0069C48.2792 41.7207 47.8063 41.7029 47.4667 41.9554C47.3974 42.0069 40.4943 47.1109 32 47.1109C23.5272 47.1109 16.6009 42.0069 16.5334 41.9554C16.1938 41.7029 15.7209 41.7243 15.4045 42.0069C15.0898 42.2914 15.0187 42.7607 15.2374 43.1234C15.4667 43.5056 20.9565 52.4443 32 52.4443C43.0436 52.4443 48.5352 43.5056 48.7627 43.1234C48.9814 42.7589 48.912 42.2914 48.5956 42.0069Z" fill="#664500"/>
<defs>
<linearGradient id="paint0_linear_483_1086" x1="32" y1="0" x2="32" y2="64" gradientUnits="userSpaceOnUse">
<stop stop-color="#FFE39C"/>
<stop offset="0.416667" stop-color="#FFCC4D"/>
<stop offset="1" stop-color="#FFB600"/>
</linearGradient>
<linearGradient id="paint1_linear_483_1086" x1="45.8036" y1="10.1897" x2="47.271" y2="40.6511" gradientUnits="userSpaceOnUse">
<stop stop-color="#FF95C1"/>
<stop offset="0.510417" stop-color="#FF1074"/>
<stop offset="1"/>
</linearGradient>
</defs>
</svg>
