<svg width="64" height="65" viewBox="0 0 64 65" fill="none" xmlns="http://www.w3.org/2000/svg">
<path d="M32 64.5C49.6731 64.5 64 50.1731 64 32.5C64 14.8269 49.6731 0.5 32 0.5C14.3269 0.5 0 14.8269 0 32.5C0 50.1731 14.3269 64.5 32 64.5Z" fill="url(#paint0_linear_483_1119)"/>
<path d="M48.5956 42.5069C48.2791 42.2207 47.8062 42.2029 47.4667 42.4554C47.3974 42.5069 40.4942 47.6109 32 47.6109C23.5271 47.6109 16.6009 42.5069 16.5333 42.4554C16.1938 42.2029 15.7209 42.2243 15.4045 42.5069C15.0898 42.7914 15.0187 43.2607 15.2373 43.6234C15.4667 44.0056 20.9565 52.9443 32 52.9443C43.0436 52.9443 48.5351 44.0056 48.7627 43.6234C48.9814 43.2589 48.912 42.7914 48.5956 42.5069Z" fill="#664500"/>
<path d="M32 47.7724C31.7369 47.7724 31.4827 47.7529 31.2213 47.744V55.7724H32.7769V47.7422C32.5191 47.7511 32.2631 47.7724 32 47.7724Z" fill="#65471B"/>
<path d="M39.1111 46.7227C39.1396 46.7156 36.5333 47.3947 34.7627 47.5867C34.112 47.6614 33.4525 47.7218 32.7769 47.7449V55.7752H35.5556C37.5111 55.7752 39.1111 54.1752 39.1111 52.2196V46.7227ZM24.8889 46.7227C24.8605 46.7156 27.4667 47.3947 29.2373 47.5867C29.888 47.6614 30.5476 47.7218 31.2231 47.7449V55.7752H28.4445C26.4889 55.7752 24.8889 54.1752 24.8889 52.2196V46.7227Z" fill="white"/>
<path d="M48.5955 42.5069C48.2791 42.2206 47.8062 42.2029 47.4667 42.4553C47.4133 42.4944 43.4507 45.4206 37.8471 46.8464C37.0595 47.0473 34.5333 47.6109 32.0053 47.6126C29.4738 47.6126 26.9404 47.0473 26.1529 46.8464C20.5493 45.4206 16.5867 42.4944 16.5333 42.4553C16.1955 42.2029 15.7209 42.2206 15.4044 42.5069C15.088 42.7913 15.0187 43.2589 15.2373 43.6233C15.4098 43.9113 18.5884 49.0758 24.8889 51.5895V48.338C24.8604 48.3309 27.4667 49.01 29.2373 49.202C29.888 49.2766 30.5475 49.3371 31.2231 49.3602C31.4827 49.3691 31.7369 49.3886 32 49.3886C32.2631 49.3886 32.5173 49.3691 32.7787 49.3602C33.4542 49.3371 34.1138 49.2784 34.7644 49.202C36.5351 49.01 39.1413 48.3309 39.1129 48.338V51.5895C45.4133 49.0758 48.592 43.9113 48.7644 43.6233C48.9813 43.2589 48.912 42.7913 48.5955 42.5069ZM47.3315 25.4313C47.3315 28.4784 45.664 30.9495 43.6053 30.9495C41.5484 30.9495 39.8791 28.4784 39.8791 25.4313C39.8791 22.3842 41.5467 19.9131 43.6053 19.9131C45.664 19.9131 47.3315 22.3842 47.3315 25.4313ZM16.8124 25.4313C16.8124 28.4784 18.48 30.9495 20.5387 30.9495C22.5955 30.9495 24.2649 28.4784 24.2649 25.4313C24.2649 22.3842 22.5973 19.9131 20.5387 19.9131C18.48 19.9131 16.8124 22.3842 16.8124 25.4313Z" fill="#65471B"/>
<path d="M61.8809 17.6147C61.5769 17.3195 59.6285 18.1018 57.6569 17.0973C53.5894 15.0244 43.3102 13.0244 36.6187 17.7658C35.9022 18.2724 32.9085 18.3578 32.0711 18.3222C31.2338 18.3595 28.24 18.2742 27.5236 17.7658C20.8338 13.0244 10.5547 15.0244 6.48713 17.0973C4.51558 18.1018 2.56713 17.3195 2.26313 17.6147C1.82402 18.0395 1.82402 19.7409 2.26491 20.1675C2.70224 20.5924 4.89069 21.0831 5.32624 22.3578C5.76535 23.6342 5.76891 31.172 9.26047 33.7782C12.5298 36.2173 20.1565 36.9515 24.9902 34.2013C29.2071 31.8031 29.0596 26.7542 29.8329 23.7462C30.1085 22.6742 30.8854 22.1338 32.0729 22.1338C33.2605 22.1338 34.0374 22.6742 34.3129 23.7462C35.0862 26.7524 34.9369 31.8031 39.1556 34.2013C43.9894 36.9498 51.616 36.2155 54.8836 33.7782C58.3769 31.1738 58.3805 23.6342 58.8178 22.3578C59.2534 21.0831 61.4418 20.5906 61.8791 20.1675C62.32 19.7409 62.3218 18.0395 61.8809 17.6147ZM25.9805 24.1035C25.8436 26.068 25.4934 29.8404 23.1414 31.1791C21.6996 32.0004 19.8205 32.5 17.8542 32.5H17.8525C15.6747 32.5 12.656 31.8831 11.4756 31.0031C10 29.9027 9.43824 25.3729 9.22669 23.6787C9.09158 22.5995 8.72891 19.9631 9.91647 19.5578C11.8009 18.916 14.4302 18.4146 17.12 18.4146C18.352 18.4146 22.4907 18.4911 24.5067 19.732C26.2934 20.8289 26.0569 23.0227 25.9805 24.1035ZM54.9191 23.6538C54.7076 25.3498 54.1458 29.9027 52.6702 31.0031C51.4898 31.8831 48.4711 32.5 46.2934 32.5H46.2916C44.3236 32.5 42.4462 32.0004 41.0027 31.1791C38.6507 29.8422 38.3005 26.0929 38.1636 24.1284C38.0889 23.0475 37.8507 20.8378 39.6374 19.7409C41.6551 18.5 45.792 18.4146 47.024 18.4146C49.7138 18.4146 52.3414 18.9071 54.2276 19.5489C55.4151 19.9542 55.0542 22.5747 54.9191 23.6538Z" fill="#292F33"/>
<path d="M61.8809 17.6147C61.5769 17.3195 59.6285 18.1018 57.6569 17.0973C53.5894 15.0244 43.3102 13.0244 36.6187 17.7658C35.9022 18.2724 32.9085 18.3578 32.0711 18.3222C31.2338 18.3595 28.24 18.2742 27.5236 17.7658C20.8338 13.0244 10.5547 15.0244 6.48713 17.0973C4.51558 18.1018 2.56713 17.3195 2.26313 17.6147C1.82402 18.0395 1.82402 19.7409 2.26491 20.1675C2.70224 20.5924 4.89069 21.0831 5.32624 22.3578C5.76535 23.6342 5.76891 31.172 9.26047 33.7782C12.5298 36.2173 20.1565 36.9515 24.9902 34.2013C29.2071 31.8031 29.0596 26.7542 29.8329 23.7462C30.1085 22.6742 30.8854 22.1338 32.0729 22.1338C33.2605 22.1338 34.0374 22.6742 34.3129 23.7462C35.0862 26.7524 34.9369 31.8031 39.1556 34.2013C43.9894 36.9498 51.616 36.2155 54.8836 33.7782C58.3769 31.1738 58.3805 23.6342 58.8178 22.3578C59.2534 21.0831 61.4418 20.5906 61.8791 20.1675C62.32 19.7409 62.3218 18.0395 61.8809 17.6147ZM25.9805 24.1035C25.8436 26.068 25.4934 29.8404 23.1414 31.1791C21.6996 32.0004 19.8205 32.5 17.8542 32.5H17.8525C15.6747 32.5 12.656 31.8831 11.4756 31.0031C10 29.9027 9.43824 25.3729 9.22669 23.6787C9.09158 22.5995 8.72891 19.9631 9.91647 19.5578C11.8009 18.916 14.4302 18.4146 17.12 18.4146C18.352 18.4146 22.4907 18.4911 24.5067 19.732C26.2934 20.8289 26.0569 23.0227 25.9805 24.1035ZM54.9191 23.6538C54.7076 25.3498 54.1458 29.9027 52.6702 31.0031C51.4898 31.8831 48.4711 32.5 46.2934 32.5H46.2916C44.3236 32.5 42.4462 32.0004 41.0027 31.1791C38.6507 29.8422 38.3005 26.0929 38.1636 24.1284C38.0889 23.0475 37.8507 20.8378 39.6374 19.7409C41.6551 18.5 45.792 18.4146 47.024 18.4146C49.7138 18.4146 52.3414 18.9071 54.2276 19.5489C55.4151 19.9542 55.0542 22.5747 54.9191 23.6538Z" fill="url(#paint1_linear_483_1119)"/>
<defs>
<linearGradient id="paint0_linear_483_1119" x1="32" y1="0.5" x2="32" y2="64.5" gradientUnits="userSpaceOnUse">
<stop stop-color="#FFE39C"/>
<stop offset="0.416667" stop-color="#FFCC4D"/>
<stop offset="1" stop-color="#FFB600"/>
</linearGradient>
<linearGradient id="paint1_linear_483_1119" x1="45.8448" y1="8.25555" x2="47.7349" y2="42.8125" gradientUnits="userSpaceOnUse">
<stop stop-color="#FF95C1"/>
<stop offset="0.510417" stop-color="#FF1074"/>
<stop offset="1"/>
</linearGradient>
</defs>
</svg>
