<svg width="64" height="64" viewBox="0 0 64 64" fill="none" xmlns="http://www.w3.org/2000/svg">
<path d="M64 32C64 49.6729 49.6729 64 32 64C14.3271 64 0 49.6729 0 32C0 14.3271 14.3271 0 32 0C49.6729 0 64 14.3271 64 32Z" fill="url(#paint0_linear_483_1073)"/>
<path d="M32 37.333C25.5591 37.333 21.2853 36.5828 16 35.5553C14.7929 35.3224 12.4445 35.5553 12.4445 39.1108C12.4445 46.2219 20.6133 55.1108 32 55.1108C43.3849 55.1108 51.5556 46.2219 51.5556 39.1108C51.5556 35.5553 49.2071 35.3206 48 35.5553C42.7147 36.5828 38.4409 37.333 32 37.333Z" fill="#664500"/>
<path d="M16 39.1113C16 39.1113 21.3333 40.8891 32 40.8891C42.6667 40.8891 48 39.1113 48 39.1113C48 39.1113 44.4444 46.2224 32 46.2224C19.5556 46.2224 16 39.1113 16 39.1113Z" fill="white"/>
<path d="M27.8791 7.84539L19.8044 9.26939L15.6444 1.7085C15.1857 0.874719 14.2435 0.428497 13.312 0.592052C12.3751 0.757386 11.6462 1.5005 11.5004 2.43916L10.176 10.9672L2.1013 12.3912C1.15019 12.5583 0.415964 13.3245 0.286187 14.2827C0.156409 15.2409 0.661298 16.1725 1.53596 16.5885L8.77152 20.0232L7.44174 28.5778C7.29419 29.5307 7.77774 30.4694 8.63819 30.9049C8.95641 31.0649 9.29774 31.1414 9.6373 31.1414C10.2186 31.1414 10.7929 30.9138 11.2213 30.4801L17.4649 24.1494L25.4969 27.9627C26.368 28.3752 27.4062 28.1814 28.0675 27.4792C28.7289 26.7769 28.8604 25.7298 28.3964 24.8854L24.2222 17.2978L29.8489 11.5947C30.528 10.9067 30.6826 9.85783 30.2346 9.00094C29.7831 8.14405 28.8249 7.68005 27.8791 7.84539ZM36.1209 7.84539L44.1955 9.26939L48.3555 1.7085C48.8142 0.874719 49.7564 0.428497 50.688 0.592052C51.6231 0.757386 52.352 1.5005 52.4977 2.43916L53.8222 10.9672L61.8969 12.3912C62.8497 12.5583 63.584 13.3227 63.712 14.2809C63.84 15.2392 63.3369 16.1707 62.4622 16.5867L55.2266 20.0214L56.5564 28.5761C56.704 29.5289 56.2204 30.4676 55.36 30.9032C55.0417 31.0632 54.7004 31.1396 54.3609 31.1396C53.7795 31.1396 53.2053 30.9121 52.7769 30.4783L46.5333 24.1476L38.5013 27.9609C37.6302 28.3734 36.592 28.1796 35.9306 27.4774C35.2693 26.7752 35.1377 25.7281 35.6017 24.8836L39.776 17.2978L34.1493 11.5947C33.4702 10.9067 33.3155 9.85783 33.7635 9.00094C34.2169 8.14405 35.1751 7.68005 36.1209 7.84539Z" fill="url(#paint1_linear_483_1073)"/>
<defs>
<linearGradient id="paint0_linear_483_1073" x1="32" y1="0" x2="32" y2="64" gradientUnits="userSpaceOnUse">
<stop stop-color="#FFE39C"/>
<stop offset="0.416667" stop-color="#FFCC4D"/>
<stop offset="1" stop-color="#FFB600"/>
</linearGradient>
<linearGradient id="paint1_linear_483_1073" x1="46.5" y1="-9" x2="50.2587" y2="40.9375" gradientUnits="userSpaceOnUse">
<stop stop-color="#FF95C1"/>
<stop offset="0.510417" stop-color="#FF1074"/>
<stop offset="1"/>
</linearGradient>
</defs>
</svg>
